<?xml version="1.0" encoding="us-ascii" standalone="no"?><svg xmlns="http://www.w3.org/2000/svg" xmlns:xlink="http://www.w3.org/1999/xlink" contentStyleType="text/css" height="981px" preserveAspectRatio="none" style="width:501px;height:981px;background:#FFFFFF;" version="1.1" viewBox="0 0 501 981" width="501px" zoomAndPan="magnify"><defs/><g><rect fill="#D3D3D3" height="391.8594" style="stroke:#D3D3D3;stroke-width:1.0;" width="10" x="64.5" y="46.2969"/><line style="stroke:#181818;stroke-width:1.0;" x1="64.5" x2="64.5" y1="46.2969" y2="438.1563"/><line style="stroke:#181818;stroke-width:1.0;" x1="74.5" x2="74.5" y1="46.2969" y2="438.1563"/><line style="stroke:#181818;stroke-width:1.0;" x1="64.5" x2="74.5" y1="46.2969" y2="46.2969"/><rect fill="#D3D3D3" height="134.6641" style="stroke:#D3D3D3;stroke-width:1.0;" width="10" x="64.5" y="466.1563"/><line style="stroke:#181818;stroke-width:1.0;" x1="64.5" x2="64.5" y1="466.1563" y2="600.8203"/><line style="stroke:#181818;stroke-width:1.0;" x1="74.5" x2="74.5" y1="466.1563" y2="600.8203"/><rect fill="#D3D3D3" height="254.1953" style="stroke:#D3D3D3;stroke-width:1.0;" width="10" x="64.5" y="628.8203"/><line style="stroke:#181818;stroke-width:1.0;" x1="64.5" x2="64.5" y1="628.8203" y2="883.0156"/><line style="stroke:#181818;stroke-width:1.0;" x1="74.5" x2="74.5" y1="628.8203" y2="883.0156"/><rect fill="#D3D3D3" height="26" style="stroke:#D3D3D3;stroke-width:1.0;" width="10" x="64.5" y="911.0156"/><line style="stroke:#181818;stroke-width:1.0;" x1="64.5" x2="64.5" y1="911.0156" y2="937.0156"/><line style="stroke:#181818;stroke-width:1.0;" x1="74.5" x2="74.5" y1="911.0156" y2="937.0156"/><rect fill="#CD5C5C" height="277.3281" style="stroke:#CD5C5C;stroke-width:1.0;" width="10" x="240.5" y="160.8281"/><line style="stroke:#181818;stroke-width:1.0;" x1="240.5" x2="240.5" y1="160.8281" y2="438.1563"/><line style="stroke:#181818;stroke-width:1.0;" x1="250.5" x2="250.5" y1="160.8281" y2="438.1563"/><line style="stroke:#181818;stroke-width:1.0;" x1="240.5" x2="250.5" y1="160.8281" y2="160.8281"/><rect fill="#CD5C5C" height="101.6641" style="stroke:#CD5C5C;stroke-width:1.0;" width="10" x="240.5" y="466.1563"/><line style="stroke:#181818;stroke-width:1.0;" x1="240.5" x2="240.5" y1="466.1563" y2="567.8203"/><line style="stroke:#181818;stroke-width:1.0;" x1="250.5" x2="250.5" y1="466.1563" y2="567.8203"/><line style="stroke:#181818;stroke-width:1.0;" x1="240.5" x2="250.5" y1="567.8203" y2="567.8203"/><rect fill="#CD5C5C" height="174.3633" style="stroke:#181818;stroke-width:1.0;" width="10" x="240.5" y="675.6523"/><rect fill="#CD5C5C" height="114.5313" style="stroke:#181818;stroke-width:1.0;" width="10" x="405.5" y="46.2969"/><rect fill="#CD5C5C" height="33" style="stroke:#CD5C5C;stroke-width:1.0;" width="10" x="405.5" y="567.8203"/><line style="stroke:#181818;stroke-width:1.0;" x1="405.5" x2="405.5" y1="567.8203" y2="600.8203"/><line style="stroke:#181818;stroke-width:1.0;" x1="415.5" x2="415.5" y1="567.8203" y2="600.8203"/><line style="stroke:#181818;stroke-width:1.0;" x1="405.5" x2="415.5" y1="567.8203" y2="567.8203"/><rect fill="#CD5C5C" height="46.832" style="stroke:#CD5C5C;stroke-width:1.0;" width="10" x="405.5" y="628.8203"/><line style="stroke:#181818;stroke-width:1.0;" x1="405.5" x2="405.5" y1="628.8203" y2="675.6523"/><line style="stroke:#181818;stroke-width:1.0;" x1="415.5" x2="415.5" y1="628.8203" y2="675.6523"/><line style="stroke:#181818;stroke-width:1.0;" x1="405.5" x2="415.5" y1="675.6523" y2="675.6523"/><rect fill="#CD5C5C" height="33" style="stroke:#CD5C5C;stroke-width:1.0;" width="10" x="405.5" y="850.0156"/><line style="stroke:#181818;stroke-width:1.0;" x1="405.5" x2="405.5" y1="850.0156" y2="883.0156"/><line style="stroke:#181818;stroke-width:1.0;" x1="415.5" x2="415.5" y1="850.0156" y2="883.0156"/><line style="stroke:#181818;stroke-width:1.0;" x1="405.5" x2="415.5" y1="850.0156" y2="850.0156"/><rect fill="#CD5C5C" height="26" style="stroke:#CD5C5C;stroke-width:1.0;" width="10" x="405.5" y="911.0156"/><line style="stroke:#181818;stroke-width:1.0;" x1="405.5" x2="405.5" y1="911.0156" y2="937.0156"/><line style="stroke:#181818;stroke-width:1.0;" x1="415.5" x2="415.5" y1="911.0156" y2="937.0156"/><line style="stroke:#181818;stroke-width:0.5;stroke-dasharray:5.0,5.0;" x1="69" x2="69" y1="36.2969" y2="438.1563"/><line style="stroke:#A80036;stroke-width:1.0;stroke-dasharray:1.0,4.0;" x1="69" x2="69" y1="438.1563" y2="466.1563"/><line style="stroke:#181818;stroke-width:0.5;stroke-dasharray:5.0,5.0;" x1="69" x2="69" y1="466.1563" y2="600.8203"/><line style="stroke:#A80036;stroke-width:1.0;stroke-dasharray:1.0,4.0;" x1="69" x2="69" y1="600.8203" y2="628.8203"/><line style="stroke:#181818;stroke-width:0.5;stroke-dasharray:5.0,5.0;" x1="69" x2="69" y1="628.8203" y2="883.0156"/><line style="stroke:#A80036;stroke-width:1.0;stroke-dasharray:1.0,4.0;" x1="69" x2="69" y1="883.0156" y2="911.0156"/><line style="stroke:#181818;stroke-width:0.5;stroke-dasharray:5.0,5.0;" x1="69" x2="69" y1="911.0156" y2="946.0156"/><line style="stroke:#181818;stroke-width:0.5;stroke-dasharray:5.0,5.0;" x1="245" x2="245" y1="36.2969" y2="438.1563"/><line style="stroke:#A80036;stroke-width:1.0;stroke-dasharray:1.0,4.0;" x1="245" x2="245" y1="438.1563" y2="466.1563"/><line style="stroke:#181818;stroke-width:0.5;stroke-dasharray:5.0,5.0;" x1="245" x2="245" y1="466.1563" y2="600.8203"/><line style="stroke:#A80036;stroke-width:1.0;stroke-dasharray:1.0,4.0;" x1="245" x2="245" y1="600.8203" y2="628.8203"/><line style="stroke:#181818;stroke-width:0.5;stroke-dasharray:5.0,5.0;" x1="245" x2="245" y1="628.8203" y2="883.0156"/><line style="stroke:#A80036;stroke-width:1.0;stroke-dasharray:1.0,4.0;" x1="245" x2="245" y1="883.0156" y2="911.0156"/><line style="stroke:#181818;stroke-width:0.5;stroke-dasharray:5.0,5.0;" x1="245" x2="245" y1="911.0156" y2="946.0156"/><line style="stroke:#181818;stroke-width:0.5;stroke-dasharray:5.0,5.0;" x1="410.5" x2="410.5" y1="36.2969" y2="438.1563"/><line style="stroke:#A80036;stroke-width:1.0;stroke-dasharray:1.0,4.0;" x1="410.5" x2="410.5" y1="438.1563" y2="466.1563"/><line style="stroke:#181818;stroke-width:0.5;stroke-dasharray:5.0,5.0;" x1="410.5" x2="410.5" y1="466.1563" y2="600.8203"/><line style="stroke:#A80036;stroke-width:1.0;stroke-dasharray:1.0,4.0;" x1="410.5" x2="410.5" y1="600.8203" y2="628.8203"/><line style="stroke:#181818;stroke-width:0.5;stroke-dasharray:5.0,5.0;" x1="410.5" x2="410.5" y1="628.8203" y2="883.0156"/><line style="stroke:#A80036;stroke-width:1.0;stroke-dasharray:1.0,4.0;" x1="410.5" x2="410.5" y1="883.0156" y2="911.0156"/><line style="stroke:#181818;stroke-width:0.5;stroke-dasharray:5.0,5.0;" x1="410.5" x2="410.5" y1="911.0156" y2="946.0156"/><rect fill="#E2E2F0" height="30.2969" rx="2.5" ry="2.5" style="stroke:#181818;stroke-width:0.5;" width="53" x="43" y="5"/><text fill="#000000" font-family="Helvetica" font-size="14" lengthAdjust="spacing" textLength="39" x="50" y="24.9951">Client</text><rect fill="#E2E2F0" height="30.2969" rx="2.5" ry="2.5" style="stroke:#181818;stroke-width:0.5;" width="53" x="43" y="945.0156"/><text fill="#000000" font-family="Helvetica" font-size="14" lengthAdjust="spacing" textLength="39" x="50" y="965.0107">Client</text><rect fill="#E2E2F0" height="30.2969" rx="2.5" ry="2.5" style="stroke:#181818;stroke-width:0.5;" width="81" x="205" y="5"/><text fill="#000000" font-family="Helvetica" font-size="14" lengthAdjust="spacing" textLength="67" x="212" y="24.9951">Verisocks</text><rect fill="#E2E2F0" height="30.2969" rx="2.5" ry="2.5" style="stroke:#181818;stroke-width:0.5;" width="81" x="205" y="945.0156"/><text fill="#000000" font-family="Helvetica" font-size="14" lengthAdjust="spacing" textLength="67" x="212" y="965.0107">Verisocks</text><rect fill="#E2E2F0" height="30.2969" rx="2.5" ry="2.5" style="stroke:#181818;stroke-width:0.5;" width="78" x="371.5" y="5"/><text fill="#000000" font-family="Helvetica" font-size="14" lengthAdjust="spacing" textLength="64" x="378.5" y="24.9951">Simulator</text><rect fill="#E2E2F0" height="30.2969" rx="2.5" ry="2.5" style="stroke:#181818;stroke-width:0.5;" width="78" x="371.5" y="945.0156"/><text fill="#000000" font-family="Helvetica" font-size="14" lengthAdjust="spacing" textLength="64" x="378.5" y="965.0107">Simulator</text><rect fill="#D3D3D3" height="391.8594" style="stroke:#D3D3D3;stroke-width:1.0;" width="10" x="64.5" y="46.2969"/><line style="stroke:#181818;stroke-width:1.0;" x1="64.5" x2="64.5" y1="46.2969" y2="438.1563"/><line style="stroke:#181818;stroke-width:1.0;" x1="74.5" x2="74.5" y1="46.2969" y2="438.1563"/><line style="stroke:#181818;stroke-width:1.0;" x1="64.5" x2="74.5" y1="46.2969" y2="46.2969"/><rect fill="#D3D3D3" height="134.6641" style="stroke:#D3D3D3;stroke-width:1.0;" width="10" x="64.5" y="466.1563"/><line style="stroke:#181818;stroke-width:1.0;" x1="64.5" x2="64.5" y1="466.1563" y2="600.8203"/><line style="stroke:#181818;stroke-width:1.0;" x1="74.5" x2="74.5" y1="466.1563" y2="600.8203"/><rect fill="#D3D3D3" height="254.1953" style="stroke:#D3D3D3;stroke-width:1.0;" width="10" x="64.5" y="628.8203"/><line style="stroke:#181818;stroke-width:1.0;" x1="64.5" x2="64.5" y1="628.8203" y2="883.0156"/><line style="stroke:#181818;stroke-width:1.0;" x1="74.5" x2="74.5" y1="628.8203" y2="883.0156"/><rect fill="#D3D3D3" height="26" style="stroke:#D3D3D3;stroke-width:1.0;" width="10" x="64.5" y="911.0156"/><line style="stroke:#181818;stroke-width:1.0;" x1="64.5" x2="64.5" y1="911.0156" y2="937.0156"/><line style="stroke:#181818;stroke-width:1.0;" x1="74.5" x2="74.5" y1="911.0156" y2="937.0156"/><rect fill="#CD5C5C" height="277.3281" style="stroke:#CD5C5C;stroke-width:1.0;" width="10" x="240.5" y="160.8281"/><line style="stroke:#181818;stroke-width:1.0;" x1="240.5" x2="240.5" y1="160.8281" y2="438.1563"/><line style="stroke:#181818;stroke-width:1.0;" x1="250.5" x2="250.5" y1="160.8281" y2="438.1563"/><line style="stroke:#181818;stroke-width:1.0;" x1="240.5" x2="250.5" y1="160.8281" y2="160.8281"/><rect fill="#CD5C5C" height="101.6641" style="stroke:#CD5C5C;stroke-width:1.0;" width="10" x="240.5" y="466.1563"/><line style="stroke:#181818;stroke-width:1.0;" x1="240.5" x2="240.5" y1="466.1563" y2="567.8203"/><line style="stroke:#181818;stroke-width:1.0;" x1="250.5" x2="250.5" y1="466.1563" y2="567.8203"/><line style="stroke:#181818;stroke-width:1.0;" x1="240.5" x2="250.5" y1="567.8203" y2="567.8203"/><rect fill="#CD5C5C" height="174.3633" style="stroke:#181818;stroke-width:1.0;" width="10" x="240.5" y="675.6523"/><rect fill="#CD5C5C" height="114.5313" style="stroke:#181818;stroke-width:1.0;" width="10" x="405.5" y="46.2969"/><rect fill="#CD5C5C" height="33" style="stroke:#CD5C5C;stroke-width:1.0;" width="10" x="405.5" y="567.8203"/><line style="stroke:#181818;stroke-width:1.0;" x1="405.5" x2="405.5" y1="567.8203" y2="600.8203"/><line style="stroke:#181818;stroke-width:1.0;" x1="415.5" x2="415.5" y1="567.8203" y2="600.8203"/><line style="stroke:#181818;stroke-width:1.0;" x1="405.5" x2="415.5" y1="567.8203" y2="567.8203"/><rect fill="#CD5C5C" height="46.832" style="stroke:#CD5C5C;stroke-width:1.0;" width="10" x="405.5" y="628.8203"/><line style="stroke:#181818;stroke-width:1.0;" x1="405.5" x2="405.5" y1="628.8203" y2="675.6523"/><line style="stroke:#181818;stroke-width:1.0;" x1="415.5" x2="415.5" y1="628.8203" y2="675.6523"/><line style="stroke:#181818;stroke-width:1.0;" x1="405.5" x2="415.5" y1="675.6523" y2="675.6523"/><rect fill="#CD5C5C" height="33" style="stroke:#CD5C5C;stroke-width:1.0;" width="10" x="405.5" y="850.0156"/><line style="stroke:#181818;stroke-width:1.0;" x1="405.5" x2="405.5" y1="850.0156" y2="883.0156"/><line style="stroke:#181818;stroke-width:1.0;" x1="415.5" x2="415.5" y1="850.0156" y2="883.0156"/><line style="stroke:#181818;stroke-width:1.0;" x1="405.5" x2="415.5" y1="850.0156" y2="850.0156"/><rect fill="#CD5C5C" height="26" style="stroke:#CD5C5C;stroke-width:1.0;" width="10" x="405.5" y="911.0156"/><line style="stroke:#181818;stroke-width:1.0;" x1="405.5" x2="405.5" y1="911.0156" y2="937.0156"/><line style="stroke:#181818;stroke-width:1.0;" x1="415.5" x2="415.5" y1="911.0156" y2="937.0156"/><path d="M349,51.2969 L349,76.2969 L472,76.2969 L472,61.2969 L462,51.2969 L349,51.2969 " fill="#F0F8FF" style="stroke:#181818;stroke-width:0.5;"/><path d="M462,51.2969 L462,61.2969 L472,61.2969 L462,51.2969 " fill="#F0F8FF" style="stroke:#181818;stroke-width:0.5;"/><text fill="#000000" font-family="Helvetica" font-size="13" lengthAdjust="spacing" textLength="102" x="355" y="68.3638">Simulation start</text><polygon fill="#181818" points="261.5,156.8281,251.5,160.8281,261.5,164.8281,257.5,160.8281" style="stroke:#181818;stroke-width:1.0;"/><line style="stroke:#181818;stroke-width:1.0;" x1="255.5" x2="409.5" y1="160.8281" y2="160.8281"/><text fill="#000000" font-family="monospace" font-size="13" lengthAdjust="spacing" textLength="136" x="267.5" y="155.7622">$verisocks_init()</text><path d="M23,111.4297 L23,196.4297 L235,196.4297 L235,121.4297 L225,111.4297 L23,111.4297 " fill="#F0F8FF" style="stroke:#181818;stroke-width:0.5;"/><path d="M225,111.4297 L225,121.4297 L235,121.4297 L225,111.4297 " fill="#F0F8FF" style="stroke:#181818;stroke-width:0.5;"/><text fill="#000000" font-family="Helvetica" font-size="13" lengthAdjust="spacing" textLength="142" x="29" y="128.4966">When the system task</text><text fill="#000000" font-family="monospace" font-size="13" lengthAdjust="spacing" textLength="136" x="29" y="143.6294">$verisocks_init()</text><text fill="#000000" font-family="Helvetica" font-size="13" lengthAdjust="spacing" textLength="51" x="169" y="143.6294">is called</text><text fill="#000000" font-family="Helvetica" font-size="13" lengthAdjust="spacing" textLength="184" x="29" y="158.7622">for the first time, the focus is</text><text fill="#000000" font-family="Helvetica" font-size="13" lengthAdjust="spacing" textLength="175" x="29" y="173.895">passed to the Verisocks PLI</text><text fill="#000000" font-family="Helvetica" font-size="13" lengthAdjust="spacing" textLength="73" x="29" y="189.0278">application.</text><polygon fill="#181818" points="228.5,219.2266,238.5,223.2266,228.5,227.2266,232.5,223.2266" style="stroke:#181818;stroke-width:1.0;"/><line style="stroke:#181818;stroke-width:1.0;" x1="74.5" x2="234.5" y1="223.2266" y2="223.2266"/><text fill="#000000" font-family="Helvetica" font-size="13" lengthAdjust="spacing" textLength="125" x="81.5" y="218.1606">Connection request</text><polygon fill="#181818" points="85.5,248.3594,75.5,252.3594,85.5,256.3594,81.5,252.3594" style="stroke:#181818;stroke-width:1.0;"/><line style="stroke:#181818;stroke-width:1.0;stroke-dasharray:2.0,2.0;" x1="79.5" x2="239.5" y1="252.3594" y2="252.3594"/><text fill="#000000" font-family="Helvetica" font-size="13" lengthAdjust="spacing" textLength="140" x="91.5" y="247.2935">Connection confirmed</text><polygon fill="#181818" points="228.5,320.625,238.5,324.625,228.5,328.625,232.5,324.625" style="stroke:#181818;stroke-width:1.0;"/><line style="stroke:#181818;stroke-width:1.0;" x1="74.5" x2="234.5" y1="324.625" y2="324.625"/><text fill="#000000" font-family="Helvetica" font-size="13" lengthAdjust="spacing" textLength="93" x="81.5" y="319.5591">TCP command</text><path d="M255,290.3594 L255,345.3594 L494,345.3594 L494,300.3594 L484,290.3594 L255,290.3594 " fill="#F0F8FF" style="stroke:#181818;stroke-width:0.5;"/><path d="M484,290.3594 L484,300.3594 L494,300.3594 L484,290.3594 " fill="#F0F8FF" style="stroke:#181818;stroke-width:0.5;"/><text fill="#000000" font-family="Helvetica" font-size="13" lengthAdjust="spacing" textLength="218" x="261" y="307.4263">When Verisocks has the execution</text><text fill="#000000" font-family="Helvetica" font-size="13" lengthAdjust="spacing" textLength="211" x="261" y="322.5591">focus, several commands can be</text><text fill="#000000" font-family="Helvetica" font-size="13" lengthAdjust="spacing" textLength="194" x="261" y="337.6919">requested from the TCP client.</text><polygon fill="#181818" points="398.5,367.8906,408.5,371.8906,398.5,375.8906,402.5,371.8906" style="stroke:#181818;stroke-width:1.0;"/><line style="stroke:#181818;stroke-width:1.0;" x1="250.5" x2="404.5" y1="371.8906" y2="371.8906"/><text fill="#000000" font-family="Helvetica" font-size="13" lengthAdjust="spacing" textLength="132" x="257.5" y="366.8247">VPI command/action</text><polygon fill="#181818" points="261.5,397.0234,251.5,401.0234,261.5,405.0234,257.5,401.0234" style="stroke:#181818;stroke-width:1.0;"/><line style="stroke:#181818;stroke-width:1.0;stroke-dasharray:2.0,2.0;" x1="255.5" x2="409.5" y1="401.0234" y2="401.0234"/><text fill="#000000" font-family="Helvetica" font-size="13" lengthAdjust="spacing" textLength="83" x="267.5" y="395.9575">VPI response</text><polygon fill="#181818" points="85.5,426.1563,75.5,430.1563,85.5,434.1563,81.5,430.1563" style="stroke:#181818;stroke-width:1.0;"/><line style="stroke:#181818;stroke-width:1.0;stroke-dasharray:2.0,2.0;" x1="79.5" x2="239.5" y1="430.1563" y2="430.1563"/><text fill="#000000" font-family="Helvetica" font-size="13" lengthAdjust="spacing" textLength="87" x="91.5" y="425.0903">TCP response</text><polygon fill="#181818" points="228.5,508.9883,238.5,512.9883,228.5,516.9883,232.5,512.9883" style="stroke:#181818;stroke-width:1.0;"/><line style="stroke:#181818;stroke-width:1.0;" x1="74.5" x2="234.5" y1="512.9883" y2="512.9883"/><text fill="#000000" font-family="Helvetica" font-size="13" lengthAdjust="spacing" textLength="93" x="81.5" y="507.9224">TCP command</text><text fill="#000000" font-family="monospace" font-size="13" lengthAdjust="spacing" textLength="32" x="178.5" y="507.9224">"run</text><text fill="#000000" font-family="Helvetica" font-size="13" lengthAdjust="spacing" textLength="5" x="210.5" y="507.9224">"</text><path d="M255,471.1563 L255,541.1563 L491,541.1563 L491,481.1563 L481,471.1563 L255,471.1563 " fill="#F0F8FF" style="stroke:#181818;stroke-width:0.5;"/><path d="M481,471.1563 L481,481.1563 L491,481.1563 L481,471.1563 " fill="#F0F8FF" style="stroke:#181818;stroke-width:0.5;"/><text fill="#000000" font-family="Helvetica" font-size="13" lengthAdjust="spacing" textLength="47" x="261" y="488.2231">When a</text><text fill="#000000" font-family="monospace" font-size="13" lengthAdjust="spacing" textLength="32" x="312" y="488.2231">"run</text><text fill="#000000" font-family="Helvetica" font-size="13" lengthAdjust="spacing" textLength="88" x="344" y="488.2231">" command is</text><text fill="#000000" font-family="Helvetica" font-size="13" lengthAdjust="spacing" textLength="215" x="261" y="503.356">executed, the focus shifts back to</text><text fill="#000000" font-family="Helvetica" font-size="13" lengthAdjust="spacing" textLength="207" x="261" y="518.4888">the simulator, which restarts the</text><text fill="#000000" font-family="Helvetica" font-size="13" lengthAdjust="spacing" textLength="70" x="261" y="533.6216">simulation.</text><polygon fill="#181818" points="393.5,563.8203,403.5,567.8203,393.5,571.8203,397.5,567.8203" style="stroke:#181818;stroke-width:1.0;"/><line style="stroke:#181818;stroke-width:1.0;" x1="245.5" x2="399.5" y1="567.8203" y2="567.8203"/><text fill="#000000" font-family="Helvetica" font-size="13" lengthAdjust="spacing" textLength="89" x="252.5" y="562.7544">VPI command</text><text fill="#000000" font-family="monospace" font-size="13" lengthAdjust="spacing" textLength="32" x="345.5" y="562.7544">"run</text><text fill="#000000" font-family="Helvetica" font-size="13" lengthAdjust="spacing" textLength="5" x="377.5" y="562.7544">"</text><polygon fill="#181818" points="261.5,671.6523,251.5,675.6523,261.5,679.6523,257.5,675.6523" style="stroke:#181818;stroke-width:1.0;"/><line style="stroke:#181818;stroke-width:1.0;" x1="255.5" x2="409.5" y1="675.6523" y2="675.6523"/><text fill="#000000" font-family="Helvetica" font-size="13" lengthAdjust="spacing" textLength="123" x="267.5" y="670.5864">Registered callback</text><path d="M5,633.8203 L5,703.8203 L236,703.8203 L236,643.8203 L226,633.8203 L5,633.8203 " fill="#F0F8FF" style="stroke:#181818;stroke-width:0.5;"/><path d="M226,633.8203 L226,643.8203 L236,643.8203 L226,633.8203 " fill="#F0F8FF" style="stroke:#181818;stroke-width:0.5;"/><text fill="#000000" font-family="Helvetica" font-size="13" lengthAdjust="spacing" textLength="197" x="11" y="650.8872">When the simulation reaches a</text><text fill="#000000" font-family="Helvetica" font-size="13" lengthAdjust="spacing" textLength="202" x="11" y="666.02">pre-defined condition, the focus</text><text fill="#000000" font-family="Helvetica" font-size="13" lengthAdjust="spacing" textLength="210" x="11" y="681.1528">shifts back to Verisocks by mean</text><text fill="#000000" font-family="Helvetica" font-size="13" lengthAdjust="spacing" textLength="138" x="11" y="696.2856">of a callback function.</text><polygon fill="#181818" points="85.5,726.4844,75.5,730.4844,85.5,734.4844,81.5,730.4844" style="stroke:#181818;stroke-width:1.0;"/><line style="stroke:#181818;stroke-width:1.0;stroke-dasharray:2.0,2.0;" x1="79.5" x2="239.5" y1="730.4844" y2="730.4844"/><text fill="#000000" font-family="Helvetica" font-size="13" lengthAdjust="spacing" textLength="87" x="91.5" y="725.4185">TCP response</text><polygon fill="#181818" points="228.5,806.3164,238.5,810.3164,228.5,814.3164,232.5,810.3164" style="stroke:#181818;stroke-width:1.0;"/><line style="stroke:#181818;stroke-width:1.0;" x1="74.5" x2="234.5" y1="810.3164" y2="810.3164"/><text fill="#000000" font-family="Helvetica" font-size="13" lengthAdjust="spacing" textLength="93" x="81.5" y="805.2505">TCP command</text><text fill="#000000" font-family="monospace" font-size="13" lengthAdjust="spacing" textLength="40" x="178.5" y="805.2505">"exit</text><text fill="#000000" font-family="Helvetica" font-size="13" lengthAdjust="spacing" textLength="5" x="218.5" y="805.2505">"</text><path d="M255,768.4844 L255,838.4844 L483,838.4844 L483,778.4844 L473,768.4844 L255,768.4844 " fill="#F0F8FF" style="stroke:#181818;stroke-width:0.5;"/><path d="M473,768.4844 L473,778.4844 L483,778.4844 L473,768.4844 " fill="#F0F8FF" style="stroke:#181818;stroke-width:0.5;"/><text fill="#000000" font-family="Helvetica" font-size="13" lengthAdjust="spacing" textLength="17" x="261" y="785.5513">An</text><text fill="#000000" font-family="monospace" font-size="13" lengthAdjust="spacing" textLength="40" x="282" y="785.5513">"exit</text><text fill="#000000" font-family="Helvetica" font-size="13" lengthAdjust="spacing" textLength="139" x="322" y="785.5513">" Verisocks command</text><text fill="#000000" font-family="Helvetica" font-size="13" lengthAdjust="spacing" textLength="183" x="261" y="800.6841">relaxes the full control to the</text><text fill="#000000" font-family="Helvetica" font-size="13" lengthAdjust="spacing" textLength="207" x="261" y="815.8169">simulator, closes the TCP socket</text><text fill="#000000" font-family="Helvetica" font-size="13" lengthAdjust="spacing" textLength="127" x="261" y="830.9497">and exits Verisocks.</text><polygon fill="#181818" points="393.5,846.0156,403.5,850.0156,393.5,854.0156,397.5,850.0156" style="stroke:#181818;stroke-width:1.0;"/><line style="stroke:#181818;stroke-width:1.0;" x1="245.5" x2="399.5" y1="850.0156" y2="850.0156"/><line style="stroke:#A80036;stroke-width:2.0;" x1="236.5" x2="254.5" y1="841.0156" y2="859.0156"/><line style="stroke:#A80036;stroke-width:2.0;" x1="236.5" x2="254.5" y1="859.0156" y2="841.0156"/><!--SRC=[dLFRRXCn47ttLuosIBHI4b0U8uJK1W51LHKLL1wHuvtDMl7QY-qD2UeFzJlwOyniibcdIWJYQIzdF7FEcUFNK3WNqKCsTVNMwsKPuL9TmPVd9__yL6c4QIaNnls68OpVZiUP466bRIszhE2EJjv8jLfwrzXyweppS6sqmXlJO5Bt0GlPcFZHsNWdAuJFQDOOjP92K06zw5hQ25EZaHuoW397m0Dw7PnQ1SRMuGZxggl6o4YJ2Gkw4aAggDSo8d_1nSpcMjfxpFl_oi35BIlzv74hB8a0joOBg7xIzTFEGeWqHpm-FWhkD7nFes42MVPgtV7veQsEbrTPjkjYi8ZYUuaMOadZjo5Y1L66bJXv23GfbSOGjuBuyvb2-n0XwWe7ks-dca1r93a4p26wzdTloFns9cHTa-ajvv50cmEJ4JccHlJgIKHY2ddH2fl0r5cBgXNkyMU38JBuRZXyYIfdYMP5XzcQhW4vysqw9x2gfCrtVhHnsXdICovfJwm1DwWQRYXQaGC8I1P9qxLWRomiKEpPaFh2kwezsqvgqv889Wx4X5SrWOVvhElpHhQq6MOnFUunrCu6x6NkDHo0qMXqHX-b8FEDpRhD9qfbZnsgQO4xkPYdUmsbBcA01LqXsgneGzF5UG2_IgrA9iCnR3qJuH3El-jEA2PHeDjpxdxmDbbn6lPxN6gotfFvd5HcUZBg_QNnDAj4kgcYzZZCiT2M3piQmtWYNnpBJoAos4A5qWfNa9lTN2WQg_utuwVtUpw_R1vkT7onu6kR00dXBlKUZTpWBjz5OpZBDdfdzlTM9DjLneLz9S_bFXW5Z-RseMz-PjEaFL3hxRzib9v_0000]--></g></svg>