<?xml version="1.0" encoding="UTF-8" standalone="no"?>
<!-- Created with Inkscape (http://www.inkscape.org/) -->

<svg
   width="1500"
   height="450"
   viewBox="0 0 396.875 119.0625"
   version="1.1"
   id="svg5"
   inkscape:version="1.3.1 (9b9bdc1480, 2023-11-25, custom)"
   sodipodi:docname="vs_logo_inverted.svg"
   xml:space="preserve"
   inkscape:export-filename="../f23ed00a/vs_logo_nobg.png"
   inkscape:export-xdpi="12.8"
   inkscape:export-ydpi="12.8"
   xmlns:inkscape="http://www.inkscape.org/namespaces/inkscape"
   xmlns:sodipodi="http://sodipodi.sourceforge.net/DTD/sodipodi-0.dtd"
   xmlns="http://www.w3.org/2000/svg"
   xmlns:svg="http://www.w3.org/2000/svg"><sodipodi:namedview
     id="namedview7"
     pagecolor="#ffffff"
     bordercolor="#666666"
     borderopacity="1.0"
     inkscape:showpageshadow="false"
     inkscape:pageopacity="0.0"
     inkscape:pagecheckerboard="true"
     inkscape:deskcolor="#d1d1d1"
     inkscape:document-units="px"
     showgrid="false"
     showguides="true"
     inkscape:zoom="0.51652485"
     inkscape:cx="596.2927"
     inkscape:cy="394.94712"
     inkscape:window-width="1920"
     inkscape:window-height="1016"
     inkscape:window-x="0"
     inkscape:window-y="27"
     inkscape:window-maximized="1"
     inkscape:current-layer="layer1"
     showborder="true" /><defs
     id="defs2" /><g
     inkscape:groupmode="layer"
     id="layer1"
     inkscape:label="Layer 1"
     style="display:none"><rect
       style="fill:#000000;stroke:none;stroke-width:0.234335;stroke-linecap:round;stroke-dasharray:none"
       id="rect355"
       width="396.875"
       height="119.0625"
       x="0"
       y="0" /></g><g
     inkscape:groupmode="layer"
     id="layer3"
     inkscape:label="Background"
     style="display:inline"
     transform="translate(-148.28157,-169.20544)"><circle
       style="fill:none;stroke:#ffffff;stroke-width:1.05833;stroke-linecap:round;stroke-dasharray:none"
       id="path391"
       cx="211.17625"
       cy="228.92511"
       r="50.035507" /></g><g
     inkscape:groupmode="layer"
     id="layer4"
     inkscape:label="Text"
     style="display:inline;stroke:#ffffff"
     transform="rotate(2.7071878,3597.2804,-3071.9881)"><g
       aria-label="Verisocks"
       transform="rotate(-2.7071878,-7.1437492,-302.32896)"
       id="text4109"
       style="font-size:55.3407px;line-height:1.25;letter-spacing:0px;word-spacing:0px;display:inline;stroke:none;stroke-width:1.38352;fill:#ffffff"><path
         d="m 258.87759,194.82369 h 7.52633 q 1.2175,0 1.9646,0.58108 0.7471,0.5534 1.13448,1.43886 l 7.80304,21.58287 q 0.55341,1.41119 1.07914,3.07141 0.52574,1.66022 0.99614,3.48646 0.38738,-1.82624 0.85778,-3.48646 0.49806,-1.66022 1.05147,-3.07141 l 7.7477,-21.58287 q 0.30437,-0.77477 1.07914,-1.38352 0.80244,-0.63642 1.9646,-0.63642 h 7.58167 l -16.15948,40.3157 h -8.46713 z"
         style="font-weight:900;font-family:Lato;-inkscape-font-specification:'Lato, Heavy';fill:#ffffff"
         id="path918" /><path
         d="m 309.87386,206.00251 q 2.85004,0 5.20202,0.88545 2.37965,0.88545 4.06754,2.57335 1.71556,1.68789 2.65636,4.15055 0.96846,2.43499 0.96846,5.53407 0,0.96846 -0.083,1.57721 -0.083,0.60874 -0.30438,0.96846 -0.22136,0.35971 -0.60874,0.49807 -0.35972,0.13835 -0.9408,0.13835 h -16.54686 q 0.41505,3.59714 2.18595,5.22969 1.77091,1.60488 4.56561,1.60488 1.4942,0 2.57334,-0.35971 1.07915,-0.35972 1.90926,-0.80244 0.85778,-0.44273 1.54954,-0.80244 0.71943,-0.35972 1.4942,-0.35972 1.0238,0 1.54954,0.7471 l 2.49033,3.07141 q -1.32818,1.52187 -2.87772,2.49033 -1.52187,0.9408 -3.15442,1.4942 -1.60488,0.52574 -3.23743,0.71943 -1.60488,0.22136 -3.07141,0.22136 -3.01607,0 -5.67242,-0.96846 -2.62868,-0.99613 -4.62095,-2.93305 -1.96459,-1.93693 -3.12675,-4.81465 -1.13448,-2.87771 -1.13448,-6.69622 0,-2.87772 0.96846,-5.45106 0.99613,-2.57334 2.82238,-4.51027 1.85391,-1.93692 4.45492,-3.0714 2.62868,-1.13449 5.92146,-1.13449 z m 0.16602,5.92146 q -2.46266,0 -3.84618,1.41118 -1.38352,1.38352 -1.82624,4.0122 h 10.70842 q 0,-1.0238 -0.2767,-1.99226 -0.24903,-0.96846 -0.85778,-1.71556 -0.58108,-0.77477 -1.54954,-1.24517 -0.96846,-0.47039 -2.35198,-0.47039 z"
         style="font-weight:900;font-family:Lato;-inkscape-font-specification:'Lato, Heavy';fill:#ffffff"
         id="path920" /><path
         d="m 327.05712,235.13939 v -28.69415 h 5.09134 q 0.63642,0 1.05148,0.11068 0.44272,0.11068 0.71943,0.35971 0.30437,0.22137 0.44272,0.60875 0.16602,0.38739 0.27671,0.94079 l 0.41505,2.43499 q 1.35585,-2.32431 3.07141,-3.65248 1.74323,-1.35585 3.98453,-1.35585 1.93692,0 3.15442,0.91312 l -0.55341,6.30884 q -0.13835,0.60875 -0.47039,0.83011 -0.30438,0.22136 -0.85778,0.22136 -0.22137,0 -0.58108,-0.0277 -0.35972,-0.0277 -0.7471,-0.0553 -0.38739,-0.0553 -0.80244,-0.083 -0.38739,-0.0553 -0.71943,-0.0553 -1.88158,0 -3.01607,1.0238 -1.10681,0.99614 -1.88158,2.76704 v 17.40465 z"
         style="font-weight:900;font-family:Lato;-inkscape-font-specification:'Lato, Heavy';fill:#ffffff"
         id="path922" /><path
         d="m 356.941,206.44524 v 28.69415 h -8.57781 v -28.69415 z m 0.88545,-7.85838 q 0,1.0238 -0.41505,1.93692 -0.41506,0.88545 -1.13449,1.57721 -0.71943,0.66409 -1.68789,1.07915 -0.94079,0.38738 -2.01993,0.38738 -1.05148,0 -1.9646,-0.38738 -0.91312,-0.41506 -1.63255,-1.07915 -0.69176,-0.69176 -1.10681,-1.57721 -0.38739,-0.91312 -0.38739,-1.93692 0,-1.05148 0.38739,-1.9646 0.41505,-0.91312 1.10681,-1.60488 0.71943,-0.69176 1.63255,-1.07914 0.91312,-0.38739 1.9646,-0.38739 1.07914,0 2.01993,0.38739 0.96846,0.38738 1.68789,1.07914 0.71943,0.69176 1.13449,1.60488 0.41505,0.91312 0.41505,1.9646 z"
         style="font-weight:900;font-family:Lato;-inkscape-font-specification:'Lato, Heavy';fill:#ffffff"
         id="path924" /><path
         d="m 381.18013,212.72641 q -0.33204,0.52573 -0.71943,0.7471 -0.35971,0.22136 -0.94079,0.22136 -0.60875,0 -1.21749,-0.24903 -0.60875,-0.27671 -1.32818,-0.58108 -0.69176,-0.30438 -1.57721,-0.55341 -0.88545,-0.2767 -2.01994,-0.2767 -1.63255,0 -2.518,0.63642 -0.85778,0.60874 -0.85778,1.71556 0,0.80244 0.55341,1.32817 0.58108,0.52574 1.52187,0.9408 0.94079,0.38738 2.13061,0.7471 1.18983,0.35971 2.435,0.80244 1.24516,0.44272 2.43499,1.05147 1.18982,0.58108 2.13061,1.46653 0.94079,0.85778 1.4942,2.10294 0.58108,1.24517 0.58108,2.9884 0,2.13062 -0.77477,3.92919 -0.77477,1.79857 -2.32431,3.09908 -1.52187,1.30051 -3.79084,2.01994 -2.2413,0.71942 -5.17435,0.71942 -1.46653,0 -2.93306,-0.2767 -1.46653,-0.2767 -2.85005,-0.7471 -1.35584,-0.47039 -2.518,-1.10681 -1.16215,-0.66409 -1.99226,-1.41119 l 1.99226,-3.15442 q 0.33205,-0.55341 0.83011,-0.85778 0.52574,-0.33204 1.32818,-0.33204 0.7471,0 1.32818,0.33204 0.60874,0.33204 1.3005,0.71943 0.69176,0.38738 1.60488,0.71943 0.94079,0.33204 2.35198,0.33204 0.99613,0 1.68789,-0.19369 0.69176,-0.22136 1.10682,-0.58108 0.41505,-0.35971 0.60875,-0.80244 0.19369,-0.44272 0.19369,-0.91312 0,-0.85778 -0.58108,-1.41119 -0.58108,-0.5534 -1.52187,-0.94079 -0.94079,-0.41505 -2.15829,-0.7471 -1.18982,-0.35971 -2.43499,-0.80244 -1.24516,-0.44272 -2.46266,-1.05147 -1.18982,-0.63642 -2.13061,-1.57721 -0.9408,-0.96846 -1.52187,-2.35198 -0.58108,-1.38352 -0.58108,-3.34811 0,-1.82625 0.69176,-3.4588 0.71943,-1.66022 2.13061,-2.90538 1.41119,-1.24517 3.54181,-1.9646 2.13062,-0.7471 4.98066,-0.7471 1.54954,0 2.9884,0.2767 1.46653,0.27671 2.73936,0.77477 1.27284,0.49807 2.32431,1.18983 1.05148,0.66409 1.85392,1.46653 z"
         style="font-weight:900;font-family:Lato;-inkscape-font-specification:'Lato, Heavy';fill:#ffffff"
         id="path926" /><path
         d="m 400.82605,206.00251 q 3.2651,0 5.94913,1.0238 2.68402,1.02381 4.59327,2.93306 1.93693,1.90926 2.9884,4.64862 1.07914,2.71169 1.07914,6.11515 0,3.43112 -1.07914,6.19816 -1.05147,2.73936 -2.9884,4.67628 -1.90925,1.90926 -4.59327,2.96073 -2.68403,1.0238 -5.94913,1.0238 -3.29277,0 -6.00447,-1.0238 -2.68402,-1.05147 -4.64861,-2.96073 -1.93693,-1.93692 -3.01607,-4.67628 -1.05148,-2.76704 -1.05148,-6.19816 0,-3.40346 1.05148,-6.11515 1.07914,-2.73936 3.01607,-4.64862 1.96459,-1.90925 4.64861,-2.93306 2.7117,-1.0238 6.00447,-1.0238 z m 0,23.21542 q 2.96073,0 4.34425,-2.07527 1.41118,-2.10295 1.41118,-6.36418 0,-4.26124 -1.41118,-6.33651 -1.38352,-2.07528 -4.34425,-2.07528 -3.04374,0 -4.45493,2.07528 -1.41118,2.07527 -1.41118,6.33651 0,4.26123 1.41118,6.36418 1.41119,2.07527 4.45493,2.07527 z"
         style="font-weight:900;font-family:Lato;-inkscape-font-specification:'Lato, Heavy';fill:#ffffff"
         id="path928" /><path
         d="m 440.83735,213.25214 q -0.38739,0.4704 -0.7471,0.7471 -0.35972,0.27671 -1.02381,0.27671 -0.63641,0 -1.16215,-0.30438 -0.49807,-0.30437 -1.13449,-0.66409 -0.63641,-0.38738 -1.49419,-0.69176 -0.85779,-0.30437 -2.13062,-0.30437 -1.57721,0 -2.73937,0.58108 -1.13448,0.58108 -1.88158,1.66022 -0.7471,1.07914 -1.10681,2.65635 -0.35972,1.54954 -0.35972,3.51414 0,4.12288 1.57721,6.33651 1.60488,2.21363 4.39959,2.21363 1.4942,0 2.35198,-0.35972 0.88545,-0.38738 1.4942,-0.83011 0.60874,-0.4704 1.10681,-0.85778 0.52574,-0.38739 1.30051,-0.38739 1.0238,0 1.54954,0.7471 l 2.49033,3.07141 q -1.32818,1.52187 -2.79471,2.49033 -1.46653,0.9408 -3.01607,1.4942 -1.52187,0.52574 -3.07141,0.71943 -1.54953,0.22136 -3.01606,0.22136 -2.62869,0 -5.03601,-0.99613 -2.37965,-0.99613 -4.20589,-2.87771 -1.79857,-1.90926 -2.87772,-4.67629 -1.05147,-2.76704 -1.05147,-6.30884 0,-3.09908 0.91312,-5.78311 0.94079,-2.71169 2.73937,-4.67628 1.82624,-1.99227 4.48259,-3.12675 2.68403,-1.13449 6.19816,-1.13449 3.37578,0 5.92146,1.07915 2.54567,1.07914 4.59327,3.15441 z"
         style="font-weight:900;font-family:Lato;-inkscape-font-specification:'Lato, Heavy';fill:#ffffff"
         id="path930" /><path
         d="m 455.25358,193.71688 v 23.21542 h 1.27284 q 0.80244,0 1.21749,-0.22136 0.41506,-0.24904 0.83011,-0.80244 l 5.42339,-8.07975 q 0.49807,-0.69175 1.13449,-1.0238 0.63641,-0.35971 1.63255,-0.35971 h 7.85838 l -7.41566,10.21036 q -1.05147,1.38351 -2.49033,2.26896 0.63642,0.4704 1.16215,1.10682 0.52574,0.60875 0.99614,1.38352 l 8.07974,13.72449 h -7.7477 q -0.96846,0 -1.66022,-0.30437 -0.69176,-0.33205 -1.16215,-1.13449 l -5.42339,-10.15502 q -0.38739,-0.69176 -0.80244,-0.88545 -0.41506,-0.22136 -1.24517,-0.22136 h -1.66022 v 12.70069 h -8.57781 v -41.42251 z"
         style="font-weight:900;font-family:Lato;-inkscape-font-specification:'Lato, Heavy';fill:#ffffff"
         id="path932" /><path
         d="m 495.81823,212.72641 q -0.33204,0.52573 -0.71943,0.7471 -0.35971,0.22136 -0.94079,0.22136 -0.60875,0 -1.21749,-0.24903 -0.60875,-0.27671 -1.32818,-0.58108 -0.69176,-0.30438 -1.57721,-0.55341 -0.88545,-0.2767 -2.01994,-0.2767 -1.63255,0 -2.518,0.63642 -0.85778,0.60874 -0.85778,1.71556 0,0.80244 0.55341,1.32817 0.58108,0.52574 1.52187,0.9408 0.94079,0.38738 2.13061,0.7471 1.18983,0.35971 2.43499,0.80244 1.24517,0.44272 2.435,1.05147 1.18982,0.58108 2.13061,1.46653 0.94079,0.85778 1.4942,2.10294 0.58108,1.24517 0.58108,2.9884 0,2.13062 -0.77477,3.92919 -0.77477,1.79857 -2.32431,3.09908 -1.52187,1.30051 -3.79084,2.01994 -2.2413,0.71942 -5.17435,0.71942 -1.46653,0 -2.93306,-0.2767 -1.46653,-0.2767 -2.85005,-0.7471 -1.35584,-0.47039 -2.518,-1.10681 -1.16215,-0.66409 -1.99226,-1.41119 l 1.99226,-3.15442 q 0.33205,-0.55341 0.83011,-0.85778 0.52574,-0.33204 1.32818,-0.33204 0.7471,0 1.32818,0.33204 0.60874,0.33204 1.3005,0.71943 0.69176,0.38738 1.60488,0.71943 0.94079,0.33204 2.35198,0.33204 0.99613,0 1.68789,-0.19369 0.69176,-0.22136 1.10682,-0.58108 0.41505,-0.35971 0.60874,-0.80244 0.1937,-0.44272 0.1937,-0.91312 0,-0.85778 -0.58108,-1.41119 -0.58108,-0.5534 -1.52187,-0.94079 -0.94079,-0.41505 -2.15829,-0.7471 -1.18982,-0.35971 -2.43499,-0.80244 -1.24516,-0.44272 -2.46266,-1.05147 -1.18982,-0.63642 -2.13062,-1.57721 -0.94079,-0.96846 -1.52186,-2.35198 -0.58108,-1.38352 -0.58108,-3.34811 0,-1.82625 0.69176,-3.4588 0.71943,-1.66022 2.13061,-2.90538 1.41119,-1.24517 3.54181,-1.9646 2.13062,-0.7471 4.98066,-0.7471 1.54954,0 2.9884,0.2767 1.46653,0.27671 2.73936,0.77477 1.27284,0.49807 2.32431,1.18983 1.05148,0.66409 1.85392,1.46653 z"
         style="font-weight:900;font-family:Lato;-inkscape-font-specification:'Lato, Heavy';fill:#ffffff"
         id="path934" /></g><g
       aria-label="Connected verification"
       transform="rotate(-2.7071878,-7.1437492,-302.32896)"
       id="text4109-6"
       style="font-size:23.7121px;line-height:1.25;letter-spacing:0px;word-spacing:0px;display:inline;stroke:none;stroke-width:0.592806;fill:#ffffff"><path
         d="m 277.86146,263.55778 q 0.1897,0 0.33197,0.15413 l 0.91292,0.98405 q -1.04334,1.20932 -2.5372,1.88511 -1.482,0.6758 -3.59238,0.6758 -1.82583,0 -3.3197,-0.62837 -1.49386,-0.64023 -2.54905,-1.77841 -1.05518,-1.15004 -1.63613,-2.75061 -0.58095,-1.60056 -0.58095,-3.52124 0,-1.92068 0.60466,-3.52125 0.60466,-1.60057 1.69542,-2.7506 1.10261,-1.15004 2.63204,-1.77841 1.52943,-0.64023 3.37897,-0.64023 1.81398,0 3.20114,0.58095 1.38715,0.58095 2.44234,1.57685 l -0.75878,1.05519 q -0.0711,0.11856 -0.1897,0.20156 -0.10671,0.0711 -0.2964,0.0711 -0.21341,0 -0.52167,-0.22526 -0.30826,-0.23712 -0.80621,-0.52167 -0.49795,-0.28454 -1.24489,-0.50981 -0.74693,-0.23712 -1.83768,-0.23712 -1.31602,0 -2.40678,0.46239 -1.09076,0.45053 -1.88511,1.31602 -0.7825,0.86549 -1.22118,2.11037 -0.43867,1.24489 -0.43867,2.80989 0,1.58871 0.45053,2.83359 0.46239,1.24489 1.24489,2.11038 0.79435,0.85364 1.8614,1.30417 1.0789,0.45053 2.32378,0.45053 0.75879,0 1.36345,-0.083 0.61651,-0.0949 1.12632,-0.28454 0.52167,-0.1897 0.96034,-0.47424 0.45053,-0.29641 0.88921,-0.69951 0.20155,-0.17784 0.4031,-0.17784 z"
         style="font-family:Lato;-inkscape-font-specification:'Lato, Normal';fill:#ffffff"
         id="path984" /><path
         d="m 286.10139,254.86729 q 1.31602,0 2.37121,0.43868 1.05519,0.43867 1.80212,1.24488 0.74693,0.80621 1.13818,1.95625 0.40311,1.13818 0.40311,2.54905 0,1.42273 -0.40311,2.56091 -0.39125,1.13818 -1.13818,1.94439 -0.74693,0.80621 -1.80212,1.24489 -1.05519,0.42681 -2.37121,0.42681 -1.32788,0 -2.39492,-0.42681 -1.05519,-0.43868 -1.80212,-1.24489 -0.74693,-0.80621 -1.15004,-1.94439 -0.39125,-1.13818 -0.39125,-2.56091 0,-1.41087 0.39125,-2.54905 0.40311,-1.15004 1.15004,-1.95625 0.74693,-0.80621 1.80212,-1.24488 1.06704,-0.43868 2.39492,-0.43868 z m 0,10.71787 q 1.77841,0 2.65576,-1.1856 0.87734,-1.19746 0.87734,-3.33155 0,-2.14595 -0.87734,-3.34341 -0.87735,-1.19746 -2.65576,-1.19746 -0.90106,0 -1.57685,0.30826 -0.66394,0.30826 -1.11447,0.8892 -0.43867,0.58095 -0.66394,1.43458 -0.21341,0.84178 -0.21341,1.90883 0,2.13409 0.87735,3.33155 0.8892,1.1856 2.69132,1.1856 z"
         style="font-family:Lato;-inkscape-font-specification:'Lato, Normal';fill:#ffffff"
         id="path986" /><path
         d="m 294.48361,267.06717 v -12.01018 h 1.26859 q 0.45053,0 0.55724,0.43867 l 0.16598,1.30417 q 0.7825,-0.86549 1.7547,-1.39901 0.97219,-0.53353 2.24079,-0.53353 0.98405,0 1.73098,0.33197 0.75879,0.32012 1.25675,0.92478 0.50981,0.5928 0.77064,1.43458 0.26083,0.84178 0.26083,1.8614 v 7.64715 h -2.12223 v -7.64715 q 0,-1.36345 -0.62837,-2.11038 -0.61652,-0.75879 -1.88511,-0.75879 -0.94849,0 -1.76655,0.45053 -0.80622,0.45053 -1.48201,1.22118 v 8.84461 z"
         style="font-family:Lato;-inkscape-font-specification:'Lato, Normal';fill:#ffffff"
         id="path988" /><path
         d="m 307.71492,267.06717 v -12.01018 h 1.2686 q 0.45053,0 0.55724,0.43867 l 0.16598,1.30417 q 0.7825,-0.86549 1.7547,-1.39901 0.97219,-0.53353 2.24079,-0.53353 0.98405,0 1.73098,0.33197 0.75879,0.32012 1.25674,0.92478 0.50981,0.5928 0.77065,1.43458 0.26083,0.84178 0.26083,1.8614 v 7.64715 h -2.12223 v -7.64715 q 0,-1.36345 -0.62837,-2.11038 -0.61652,-0.75879 -1.88512,-0.75879 -0.94848,0 -1.76655,0.45053 -0.80621,0.45053 -1.482,1.22118 v 8.84461 z"
         style="font-family:Lato;-inkscape-font-specification:'Lato, Normal';fill:#ffffff"
         id="path990" /><path
         d="m 325.86651,254.86729 q 1.0789,0 1.99181,0.36754 0.92478,0.35568 1.58871,1.04333 0.6758,0.6758 1.05519,1.68356 0.3794,0.99591 0.3794,2.27636 0,0.49796 -0.10671,0.66394 -0.1067,0.16599 -0.4031,0.16599 h -8.02655 q 0.0237,1.13818 0.30826,1.97996 0.28454,0.84178 0.7825,1.41087 0.49795,0.55723 1.1856,0.84178 0.68765,0.27269 1.54129,0.27269 0.79435,0 1.36344,-0.17784 0.58095,-0.1897 0.99591,-0.40311 0.41496,-0.21341 0.68765,-0.39125 0.28455,-0.1897 0.4861,-0.1897 0.26083,0 0.40311,0.20156 l 0.5928,0.77064 q -0.39125,0.47424 -0.93663,0.82992 -0.54538,0.34383 -1.17375,0.56909 -0.61651,0.22527 -1.28045,0.33197 -0.66394,0.11856 -1.31602,0.11856 -1.24489,0 -2.30008,-0.41496 -1.04333,-0.42682 -1.81397,-1.23303 -0.75879,-0.81806 -1.18561,-2.01553 -0.42681,-1.19746 -0.42681,-2.7506 0,-1.25674 0.37939,-2.3475 0.39125,-1.09075 1.11447,-1.88511 0.72322,-0.80621 1.76655,-1.25674 1.04333,-0.46239 2.3475,-0.46239 z m 0.0474,1.55315 q -1.52943,0 -2.40678,0.8892 -0.87734,0.87735 -1.09075,2.44235 h 6.56825 q 0,-0.73508 -0.21341,-1.33974 -0.20155,-0.61651 -0.60466,-1.05519 -0.39125,-0.45053 -0.96034,-0.68765 -0.56909,-0.24897 -1.29231,-0.24897 z"
         style="font-family:Lato;-inkscape-font-specification:'Lato, Normal';fill:#ffffff"
         id="path992" /><path
         d="m 341.82474,257.19108 q -0.0949,0.13042 -0.18969,0.20155 -0.0948,0.0711 -0.26084,0.0711 -0.17784,0 -0.39125,-0.14227 -0.21341,-0.15413 -0.53352,-0.33197 -0.30826,-0.17784 -0.77064,-0.32012 -0.45053,-0.15412 -1.11447,-0.15412 -0.8892,0 -1.565,0.32011 -0.67579,0.30826 -1.13818,0.90106 -0.45053,0.5928 -0.68765,1.43458 -0.22527,0.84178 -0.22527,1.88511 0,1.09076 0.24898,1.94439 0.24898,0.84178 0.69951,1.42273 0.46238,0.56909 1.10261,0.87735 0.65208,0.2964 1.45829,0.2964 0.77065,0 1.2686,-0.17784 0.49796,-0.1897 0.81807,-0.41496 0.33197,-0.22527 0.54538,-0.40311 0.22526,-0.1897 0.43867,-0.1897 0.26083,0 0.40311,0.20156 l 0.5928,0.77064 q -0.39125,0.4861 -0.8892,0.82992 -0.49796,0.34383 -1.0789,0.58095 -0.56909,0.22526 -1.19747,0.33197 -0.62837,0.1067 -1.28045,0.1067 -1.12632,0 -2.09852,-0.41496 -0.96034,-0.41496 -1.6717,-1.19746 -0.71137,-0.79435 -1.11447,-1.94439 -0.40311,-1.15004 -0.40311,-2.62019 0,-1.33973 0.36754,-2.47791 0.37939,-1.13818 1.09076,-1.95625 0.72322,-0.82992 1.76655,-1.29231 1.05519,-0.46239 2.41863,-0.46239 1.2686,0 2.22894,0.41497 0.9722,0.4031 1.71913,1.15003 z"
         style="font-family:Lato;-inkscape-font-specification:'Lato, Normal';fill:#ffffff"
         id="path994" /><path
         d="m 348.47597,267.25687 q -1.42273,0 -2.19337,-0.79436 -0.75879,-0.79435 -0.75879,-2.28822 v -7.35075 h -1.44644 q -0.18969,0 -0.32011,-0.1067 -0.13041,-0.11856 -0.13041,-0.35568 v -0.84178 l 1.9681,-0.24898 0.4861,-3.71094 q 0.0356,-0.17784 0.15413,-0.28455 0.13041,-0.11856 0.33197,-0.11856 h 1.06704 v 4.13776 h 3.47382 v 1.52943 h -3.47382 v 7.20848 q 0,0.75879 0.36754,1.12633 0.36753,0.36753 0.94848,0.36753 0.33197,0 0.56909,-0.083 0.24898,-0.0948 0.42682,-0.20155 0.17784,-0.10671 0.2964,-0.1897 0.13042,-0.0949 0.22527,-0.0949 0.16598,0 0.2964,0.20156 l 0.61651,1.00776 q -0.54538,0.50981 -1.31602,0.80621 -0.77064,0.28455 -1.58871,0.28455 z"
         style="font-family:Lato;-inkscape-font-specification:'Lato, Normal';fill:#ffffff"
         id="path996" /><path
         d="m 358.20977,254.86729 q 1.0789,0 1.99182,0.36754 0.92477,0.35568 1.58871,1.04333 0.67579,0.6758 1.05518,1.68356 0.3794,0.99591 0.3794,2.27636 0,0.49796 -0.10671,0.66394 -0.1067,0.16599 -0.4031,0.16599 h -8.02655 q 0.0237,1.13818 0.30826,1.97996 0.28454,0.84178 0.7825,1.41087 0.49795,0.55723 1.1856,0.84178 0.68765,0.27269 1.54129,0.27269 0.79436,0 1.36345,-0.17784 0.58094,-0.1897 0.9959,-0.40311 0.41497,-0.21341 0.68765,-0.39125 0.28455,-0.1897 0.4861,-0.1897 0.26084,0 0.40311,0.20156 l 0.5928,0.77064 q -0.39125,0.47424 -0.93663,0.82992 -0.54538,0.34383 -1.17375,0.56909 -0.61651,0.22527 -1.28045,0.33197 -0.66394,0.11856 -1.31602,0.11856 -1.24489,0 -2.30007,-0.41496 -1.04334,-0.42682 -1.81398,-1.23303 -0.75879,-0.81806 -1.1856,-2.01553 -0.42682,-1.19746 -0.42682,-2.7506 0,-1.25674 0.37939,-2.3475 0.39125,-1.09075 1.11447,-1.88511 0.72322,-0.80621 1.76655,-1.25674 1.04333,-0.46239 2.3475,-0.46239 z m 0.0474,1.55315 q -1.52943,0 -2.40677,0.8892 -0.87735,0.87735 -1.09076,2.44235 h 6.56825 q 0,-0.73508 -0.21341,-1.33974 -0.20155,-0.61651 -0.60466,-1.05519 -0.39125,-0.45053 -0.96034,-0.68765 -0.56909,-0.24897 -1.29231,-0.24897 z"
         style="font-family:Lato;-inkscape-font-specification:'Lato, Normal';fill:#ffffff"
         id="path998" /><path
         d="m 374.48813,267.06717 q -0.45053,0 -0.56909,-0.43867 l -0.1897,-1.4583 q -0.77064,0.93663 -1.76655,1.50572 -0.98405,0.55723 -2.26451,0.55723 -1.03147,0 -1.87325,-0.39125 -0.84178,-0.4031 -1.43459,-1.17374 -0.5928,-0.77065 -0.91291,-1.92068 -0.32012,-1.15004 -0.32012,-2.6439 0,-1.32788 0.35569,-2.46606 0.35568,-1.15004 1.01962,-1.99182 0.66394,-0.84178 1.62428,-1.31602 0.97219,-0.4861 2.18151,-0.4861 1.10261,0 1.88511,0.3794 0.79436,0.36753 1.41087,1.04333 v -6.6631 h 2.11038 v 17.46396 z m -4.1022,-1.54129 q 1.04333,0 1.81398,-0.47424 0.7825,-0.47424 1.43458,-1.33973 v -5.79761 q -0.5928,-0.7825 -1.28045,-1.10261 -0.68765,-0.32012 -1.54129,-0.32012 -1.6717,0 -2.57276,1.19746 -0.90106,1.19747 -0.90106,3.41455 0,1.17375 0.20155,2.01552 0.20155,0.82993 0.5928,1.37531 0.39125,0.53352 0.96034,0.7825 0.56909,0.24897 1.29231,0.24897 z"
         style="font-family:Lato;-inkscape-font-specification:'Lato, Normal';fill:#ffffff"
         id="path1000" /><path
         d="m 383.19041,255.05699 h 1.71913 q 0.26083,0 0.42682,0.13042 0.16598,0.13041 0.22526,0.30825 l 3.04701,7.73015 q 0.14227,0.43867 0.24898,0.85363 0.1067,0.41497 0.20155,0.82993 0.0949,-0.41496 0.20155,-0.82993 0.10671,-0.41496 0.26083,-0.85363 l 3.08258,-7.73015 q 0.0711,-0.18969 0.23712,-0.30825 0.16598,-0.13042 0.39125,-0.13042 h 1.64799 l -4.89655,12.01018 h -1.89697 z"
         style="font-family:Lato;-inkscape-font-specification:'Lato, Normal';fill:#ffffff"
         id="path1002" /><path
         d="m 401.41308,254.86729 q 1.07891,0 1.99182,0.36754 0.92477,0.35568 1.58871,1.04333 0.6758,0.6758 1.05519,1.68356 0.37939,0.99591 0.37939,2.27636 0,0.49796 -0.1067,0.66394 -0.10671,0.16599 -0.40311,0.16599 h -8.02654 q 0.0237,1.13818 0.30826,1.97996 0.28454,0.84178 0.78249,1.41087 0.49796,0.55723 1.18561,0.84178 0.68765,0.27269 1.54129,0.27269 0.79435,0 1.36344,-0.17784 0.58095,-0.1897 0.99591,-0.40311 0.41496,-0.21341 0.68765,-0.39125 0.28455,-0.1897 0.4861,-0.1897 0.26083,0 0.4031,0.20156 l 0.59281,0.77064 q -0.39125,0.47424 -0.93663,0.82992 -0.54538,0.34383 -1.17375,0.56909 -0.61651,0.22527 -1.28045,0.33197 -0.66394,0.11856 -1.31602,0.11856 -1.24489,0 -2.30008,-0.41496 -1.04333,-0.42682 -1.81397,-1.23303 -0.75879,-0.81806 -1.18561,-2.01553 -0.42682,-1.19746 -0.42682,-2.7506 0,-1.25674 0.3794,-2.3475 0.39125,-1.09075 1.11447,-1.88511 0.72321,-0.80621 1.76655,-1.25674 1.04333,-0.46239 2.34749,-0.46239 z m 0.0474,1.55315 q -1.52943,0 -2.40678,0.8892 -0.87735,0.87735 -1.09076,2.44235 h 6.56826 q 0,-0.73508 -0.21341,-1.33974 -0.20156,-0.61651 -0.60466,-1.05519 -0.39125,-0.45053 -0.96034,-0.68765 -0.56909,-0.24897 -1.29231,-0.24897 z"
         style="font-family:Lato;-inkscape-font-specification:'Lato, Normal';fill:#ffffff"
         id="path1004" /><path
         d="m 409.01281,267.06717 v -12.01018 h 1.20932 q 0.34383,0 0.47424,0.13042 0.13042,0.13041 0.17784,0.45053 l 0.13042,1.82583 q 0.56909,-1.23303 1.39901,-1.92068 0.84178,-0.69951 2.03924,-0.69951 0.3794,0 0.72322,0.083 0.35568,0.083 0.62837,0.26084 l -0.15413,1.57685 q -0.0711,0.2964 -0.35568,0.2964 -0.16598,0 -0.48609,-0.0711 -0.32012,-0.0711 -0.72322,-0.0711 -0.56909,0 -1.01962,0.17784 -0.45053,0.16599 -0.80622,0.49796 -0.34382,0.32011 -0.61651,0.79435 -0.27269,0.47424 -0.49795,1.09076 v 7.58787 z"
         style="font-family:Lato;-inkscape-font-specification:'Lato, Normal';fill:#ffffff"
         id="path1006" /><path
         d="m 419.87292,255.05699 v 12.01018 h -2.11038 v -12.01018 z m 0.45052,-3.77022 q 0,0.30825 -0.13041,0.58094 -0.11856,0.26084 -0.33197,0.47425 -0.20155,0.20155 -0.4861,0.32011 -0.27269,0.11856 -0.58095,0.11856 -0.30825,0 -0.58094,-0.11856 -0.26083,-0.11856 -0.46239,-0.32011 -0.20155,-0.21341 -0.32011,-0.47425 -0.11856,-0.27269 -0.11856,-0.58094 0,-0.30826 0.11856,-0.58095 0.11856,-0.28454 0.32011,-0.4861 0.20156,-0.21341 0.46239,-0.33197 0.27269,-0.11856 0.58094,-0.11856 0.30826,0 0.58095,0.11856 0.28455,0.11856 0.4861,0.33197 0.21341,0.20156 0.33197,0.4861 0.13041,0.27269 0.13041,0.58095 z"
         style="font-family:Lato;-inkscape-font-specification:'Lato, Normal';fill:#ffffff"
         id="path1008" /><path
         d="m 424.14109,267.06717 v -10.20806 l -1.32788,-0.15413 q -0.26083,-0.0593 -0.41496,-0.17784 -0.15413,-0.13042 -0.15413,-0.36754 v -0.86549 h 1.89697 v -0.66394 q 0,-1.10261 0.34383,-2.01553 0.34382,-0.92477 1.03147,-1.58871 0.68765,-0.66393 1.70727,-1.03147 1.03148,-0.36754 2.38307,-0.36754 0.45053,0 0.92477,0.0593 0.47424,0.0593 0.81807,0.17784 l -0.083,1.10261 q -0.0119,0.11856 -0.0948,0.16599 -0.0711,0.0474 -0.20155,0.0593 -0.13042,0.0118 -0.33197,0.0118 -0.1897,-0.0118 -0.43868,-0.0118 -2.11037,0 -3.05886,0.87735 -0.94848,0.86549 -0.94848,2.62018 v 0.60466 h 7.2559 v 11.77306 h -2.12223 v -10.24363 h -5.07439 v 10.24363 z"
         style="font-family:Lato;-inkscape-font-specification:'Lato, Normal';fill:#ffffff"
         id="path1010" /><path
         d="m 445.26853,257.19108 q -0.0949,0.13042 -0.1897,0.20155 -0.0949,0.0711 -0.26083,0.0711 -0.17784,0 -0.39125,-0.14227 -0.21341,-0.15413 -0.53352,-0.33197 -0.30826,-0.17784 -0.77065,-0.32012 -0.45053,-0.15412 -1.11446,-0.15412 -0.88921,0 -1.565,0.32011 -0.6758,0.30826 -1.13818,0.90106 -0.45053,0.5928 -0.68765,1.43458 -0.22527,0.84178 -0.22527,1.88511 0,1.09076 0.24898,1.94439 0.24898,0.84178 0.6995,1.42273 0.46239,0.56909 1.10262,0.87735 0.65208,0.2964 1.45829,0.2964 0.77064,0 1.2686,-0.17784 0.49795,-0.1897 0.81807,-0.41496 0.33197,-0.22527 0.54537,-0.40311 0.22527,-0.1897 0.43868,-0.1897 0.26083,0 0.4031,0.20156 l 0.59281,0.77064 q -0.39125,0.4861 -0.88921,0.82992 -0.49795,0.34383 -1.0789,0.58095 -0.56909,0.22526 -1.19746,0.33197 -0.62837,0.1067 -1.28045,0.1067 -1.12633,0 -2.09852,-0.41496 -0.96034,-0.41496 -1.67171,-1.19746 -0.71136,-0.79435 -1.11446,-1.94439 -0.40311,-1.15004 -0.40311,-2.62019 0,-1.33973 0.36754,-2.47791 0.37939,-1.13818 1.09075,-1.95625 0.72322,-0.82992 1.76656,-1.29231 1.05518,-0.46239 2.41863,-0.46239 1.2686,0 2.22894,0.41497 0.97219,0.4031 1.71912,1.15003 z"
         style="font-family:Lato;-inkscape-font-specification:'Lato, Normal';fill:#ffffff"
         id="path1012" /><path
         d="m 455.86782,267.06717 q -0.30826,0 -0.47424,-0.0948 -0.16599,-0.1067 -0.26083,-0.4031 l -0.23713,-1.12633 q -0.47424,0.42682 -0.93662,0.77064 -0.45053,0.33197 -0.94849,0.56909 -0.4861,0.22527 -1.05519,0.34383 -0.55723,0.13042 -1.24488,0.13042 -0.69951,0 -1.31602,-0.1897 -0.61652,-0.20155 -1.0789,-0.5928 -0.45053,-0.39125 -0.72322,-0.98406 -0.26084,-0.60465 -0.26084,-1.42272 0,-0.71136 0.39125,-1.36345 0.39125,-0.66394 1.2686,-1.17375 0.87735,-0.50981 2.28822,-0.82992 1.41087,-0.33197 3.46197,-0.37939 v -0.93663 q 0,-1.39901 -0.60466,-2.11038 -0.60466,-0.72322 -1.76655,-0.72322 -0.7825,0 -1.31603,0.20156 -0.52166,0.18969 -0.91291,0.43867 -0.3794,0.23712 -0.66394,0.43867 -0.27269,0.1897 -0.54538,0.1897 -0.21341,0 -0.36754,-0.1067 -0.15412,-0.11856 -0.26083,-0.28455 l -0.37939,-0.67579 q 0.99591,-0.96034 2.14594,-1.43459 1.15004,-0.47424 2.54905,-0.47424 1.00777,0 1.79027,0.33197 0.7825,0.33197 1.31602,0.92477 0.53352,0.59281 0.80621,1.43459 0.27269,0.84177 0.27269,1.84954 v 7.68272 z m -4.52901,-1.29231 q 0.55723,0 1.01962,-0.1067 0.46239,-0.11857 0.86549,-0.32012 0.41496,-0.21341 0.7825,-0.50981 0.37939,-0.30826 0.73508,-0.68765 v -2.48977 q -1.4583,0.0474 -2.48977,0.23712 -1.01962,0.17784 -1.67171,0.47424 -0.64022,0.2964 -0.93663,0.69951 -0.28454,0.40311 -0.28454,0.90106 0,0.47424 0.15413,0.81807 0.15413,0.34382 0.41496,0.56909 0.27269,0.21341 0.62837,0.32011 0.36754,0.0949 0.7825,0.0949 z"
         style="font-family:Lato;-inkscape-font-specification:'Lato, Normal';fill:#ffffff"
         id="path1014" /><path
         d="m 458.7014,267.06717 z m 4.84912,0.1897 q -1.42272,0 -2.19337,-0.79436 -0.75878,-0.79435 -0.75878,-2.28822 v -7.35075 h -1.44644 q -0.1897,0 -0.32011,-0.1067 -0.13042,-0.11856 -0.13042,-0.35568 v -0.84178 l 1.9681,-0.24898 0.4861,-3.71094 q 0.0356,-0.17784 0.15413,-0.28455 0.13042,-0.11856 0.33197,-0.11856 h 1.06704 v 4.13776 h 8.29924 v 11.77306 h -2.11038 v -10.24363 h -6.18886 v 7.20848 q 0,0.75879 0.36754,1.12633 0.36754,0.36753 0.94849,0.36753 0.33197,0 0.56909,-0.083 0.24897,-0.0948 0.42681,-0.20155 0.17784,-0.10671 0.29641,-0.1897 0.13041,-0.0949 0.22526,-0.0949 0.16598,0 0.2964,0.20156 l 0.61652,1.00776 q -0.54538,0.50981 -1.31603,0.80621 -0.77064,0.28455 -1.58871,0.28455 z m 7.97913,-16.0531 q 0,0.30826 -0.13042,0.58095 -0.11856,0.26083 -0.33197,0.46239 -0.20155,0.20155 -0.47424,0.32011 -0.27269,0.11856 -0.58095,0.11856 -0.30826,0 -0.58095,-0.11856 -0.26083,-0.11856 -0.46238,-0.32011 -0.20155,-0.20156 -0.32011,-0.46239 -0.11857,-0.27269 -0.11857,-0.58095 0,-0.30825 0.11857,-0.58094 0.11856,-0.28455 0.32011,-0.4861 0.20155,-0.21341 0.46238,-0.33197 0.27269,-0.11856 0.58095,-0.11856 0.30826,0 0.58095,0.11856 0.27269,0.11856 0.47424,0.33197 0.21341,0.20155 0.33197,0.4861 0.13042,0.27269 0.13042,0.58094 z"
         style="font-family:Lato;-inkscape-font-specification:'Lato, Normal';fill:#ffffff"
         id="path1016" /><path
         d="m 479.53247,254.86729 q 1.31602,0 2.37121,0.43868 1.05519,0.43867 1.80212,1.24488 0.74693,0.80621 1.13818,1.95625 0.40311,1.13818 0.40311,2.54905 0,1.42273 -0.40311,2.56091 -0.39125,1.13818 -1.13818,1.94439 -0.74693,0.80621 -1.80212,1.24489 -1.05519,0.42681 -2.37121,0.42681 -1.32788,0 -2.39492,-0.42681 -1.05519,-0.43868 -1.80212,-1.24489 -0.74693,-0.80621 -1.15004,-1.94439 -0.39125,-1.13818 -0.39125,-2.56091 0,-1.41087 0.39125,-2.54905 0.40311,-1.15004 1.15004,-1.95625 0.74693,-0.80621 1.80212,-1.24488 1.06704,-0.43868 2.39492,-0.43868 z m 0,10.71787 q 1.77841,0 2.65575,-1.1856 0.87735,-1.19746 0.87735,-3.33155 0,-2.14595 -0.87735,-3.34341 -0.87734,-1.19746 -2.65575,-1.19746 -0.90106,0 -1.57686,0.30826 -0.66393,0.30826 -1.11446,0.8892 -0.43868,0.58095 -0.66394,1.43458 -0.21341,0.84178 -0.21341,1.90883 0,2.13409 0.87735,3.33155 0.8892,1.1856 2.69132,1.1856 z"
         style="font-family:Lato;-inkscape-font-specification:'Lato, Normal';fill:#ffffff"
         id="path1018" /><path
         d="m 487.91467,267.06717 v -12.01018 h 1.2686 q 0.45053,0 0.55723,0.43867 l 0.16599,1.30417 q 0.78249,-0.86549 1.75469,-1.39901 0.9722,-0.53353 2.24079,-0.53353 0.98406,0 1.73099,0.33197 0.75878,0.32012 1.25674,0.92478 0.50981,0.5928 0.77064,1.43458 0.26083,0.84178 0.26083,1.8614 v 7.64715 h -2.12223 v -7.64715 q 0,-1.36345 -0.62837,-2.11038 -0.61651,-0.75879 -1.88511,-0.75879 -0.94848,0 -1.76655,0.45053 -0.80621,0.45053 -1.48201,1.22118 v 8.84461 z"
         style="font-family:Lato;-inkscape-font-specification:'Lato, Normal';fill:#ffffff"
         id="path1020" /></g></g><g
     inkscape:groupmode="layer"
     id="layer2"
     inkscape:label="Prise"
     style="display:inline"
     transform="translate(-148.28157,-169.20544)"><path
       style="color:#000000;display:inline;fill:#ffffff;stroke:none;stroke-linecap:round;-inkscape-stroke:none"
       d="m 167.29883,204.90508 c 0,0 10.16783,4.26862 21.94884,5.4471 11.781,1.17847 23.98135,2.70401 34.41016,5.55468 10.4288,2.85068 18.99566,7.04594 23.76367,13.20313 2.33943,3.02103 3.44223,5.79024 3.63282,8.05664 0.19058,2.2664 -0.44265,4.04008 -1.81641,5.5 -2.74751,2.91983 -9.1023,4.52117 -18.20508,2.25 -1.0436,-0.26033 -2.10069,0.37445 -2.36133,1.41797 -0.26156,1.04424 0.37349,2.10267 1.41797,2.36328 9.91511,2.47384 17.77913,1.10975 21.98633,-3.36133 2.1036,-2.23554 3.13113,-5.26434 2.85937,-8.49609 -0.27175,-3.23175 -1.75504,-6.65628 -4.43359,-10.11524 -5.60719,-7.24086 -14.98582,-11.61567 -25.81641,-14.57617 -10.83059,-2.9605 -23.20344,-4.48696 -35.04883,-5.67187 -11.8454,-1.18492 -19.83367,-5.59889 -19.83367,-5.59889 -0.90371,1.64482 -1.84486,2.40565 -2.50384,4.02679 z"
       id="path800-1-7"
       sodipodi:nodetypes="cssssscccssssscc" /><path
       fill="none"
       stroke-width="0.171805"
       stroke-linecap="butt"
       stroke-opacity="1"
       stroke="#000000"
       stroke-linejoin="round"
       d="m 196.4796,239.45756 -0.54044,-0.18944 -0.54044,-0.18944 -0.54045,-0.18944 -0.54044,-0.18944 -0.54044,-0.1895 -0.54043,-0.18944 -0.54044,-0.18944 -0.54039,-0.18945 -0.54044,-0.18944 -0.54045,-0.18945 -0.54043,-0.18944 -0.54044,-0.1895 -0.54044,-0.18945 -0.54044,-0.18944 -0.54045,-0.18945 -0.54044,-0.18944 -0.54044,-0.18944 -0.54044,-0.18944 -0.54044,-0.18944 -0.54044,-0.18951 -0.54044,-0.18944 -0.54044,-0.18944 -0.62171,-0.21791 -0.0209,-0.005 -0.0394,-0.01 -0.0652,-2.3e-4 -0.0696,0.0147 -0.0732,0.0294 -0.0762,0.044 -0.0785,0.0582 -0.08,0.0718 -0.0806,0.0849 -0.0806,0.097 -0.0797,0.10829 -0.078,0.11855 -0.0755,0.12754 -0.0725,0.13538 -0.0685,0.1418 -0.0639,0.14689 -0.0587,0.1505 -0.0528,0.15262 -0.0465,0.15325 -0.0397,0.15233 -0.0324,0.14988 -0.0251,0.14604 -0.0172,0.14064 -0.009,0.1339 -9.3e-4,0.12581 0.007,0.11655 0.0146,0.10617 0.0223,0.0948 0.0299,0.0824 0.037,0.0694 0.0438,0.0556 0.0502,0.0413 0.0393,0.0189 0.0167,0.008 0.53953,0.19209 0.53953,0.19207 0.53952,0.19208 0.53947,0.19208 0.53952,0.19208 0.53952,0.19202 0.53953,0.19207 0.53952,0.19209 0.53948,0.19207 0.53951,0.19208 0.53953,0.19207 0.53953,0.19202 0.53952,0.19209 0.53952,0.19207 0.53947,0.19208 0.53953,0.19208 0.53952,0.19208 0.53952,0.19207 0.53953,0.19202 0.53947,0.19209 0.53952,0.19207 0.53953,0.19208 0.53952,0.19207 0.19185,0.0682"
       id="path676-2-1"
       style="display:inline;fill:#ffffff;stroke:none" /><path
       fill="none"
       stroke-width="0.171805"
       stroke-linecap="butt"
       stroke-opacity="1"
       stroke="#000000"
       stroke-linejoin="round"
       d="m 231.39104,245.22243 0.18183,-0.54308 0.18171,-0.54308 0.18183,-0.54302 0.18176,-0.54307 0.13453,-0.40197 -0.43553,-0.37184 -0.43557,-0.37184 -0.43554,-0.37185 -0.43552,-0.3719 -0.43552,-0.37184 -0.43553,-0.37184 -0.43552,-0.37185 -0.43553,-0.37184 -0.43558,-0.3719 -0.43553,-0.37184 -0.43553,-0.37185 -0.43553,-0.37183 -0.43551,-0.37191 -0.43553,-0.37183 -0.43552,-0.37185 -0.43559,-0.37184 -0.43552,-0.37184 -0.43553,-0.3719 -0.43552,-0.37184 -0.43553,-0.37185 -0.43553,-0.37184 -0.43552,-0.37185 -0.43552,-0.37189 -0.43559,-0.37185 -0.43552,-0.37184 -0.43553,-0.37184 -0.43552,-0.37185 -0.43553,-0.3719 -0.14546,-0.12416 -0.5295,-0.21813 -0.52951,-0.21819 -0.52955,-0.21814 -0.32174,-0.13252 -0.54427,-0.17804 -0.54435,-0.17804 -0.54427,-0.17805 -0.54433,-0.17805 -0.54428,-0.17806 -0.54428,-0.17805 -0.54433,-0.17805 -0.54428,-0.17804 -0.54434,-0.17804 -0.54428,-0.17805 -0.54428,-0.17805 -0.54433,-0.17805 -0.54427,-0.17805 -0.54434,-0.17805 -0.54428,-0.17804 -0.54433,-0.17804 -0.54429,-0.17805 -0.54434,-0.17805 -0.54427,-0.17805 -0.54428,-0.17805 -0.54434,-0.17805 -0.54428,-0.17805 -0.54433,-0.17803 -0.54428,-0.17805 -0.54427,-0.17805 -0.54434,-0.17805 -0.23412,-0.0767 -0.32287,0.47304 -0.32282,0.47298 -0.32283,0.47303 -0.32287,0.47298 -0.32282,0.47304 -0.26327,0.38564 -0.32282,0.47304 -0.32282,0.47298 -0.32288,0.47303 -0.32281,0.47298 -0.32289,0.47304 -0.19929,0.29201 -0.32282,0.47298 -0.32288,0.47303 -0.32282,0.47298 -0.32288,0.47304 -0.32282,0.47297 -0.33049,0.48421 -0.17828,0.54422 -0.17828,0.54428 -0.17827,0.54422 -0.17828,0.54422 -0.17827,0.54422 -0.17828,0.54422 -0.17828,0.54422 -0.17827,0.54423 -0.0745,0.22746 -0.17828,0.54422 -0.17827,0.54423 -0.17828,0.54421 -0.17828,0.54428 -0.17827,0.54422 -0.14415,0.43999 -0.17827,0.54428 -0.17828,0.54422 -0.17827,0.54422 -0.17828,0.54422 -0.17828,0.54423 -0.17827,0.54421 -0.16803,0.51301 0.53838,0.19523 0.53837,0.19517 0.53838,0.19517 0.53844,0.19523 0.53838,0.19517 0.53838,0.19517 0.53838,0.19523 0.53844,0.19517 0.53838,0.19523 0.53838,0.19516 0.53838,0.19517 0.53838,0.19523 0.53843,0.19517 0.53838,0.19518 0.53838,0.19523 0.53838,0.19516 0.53844,0.19517 0.53837,0.19523 0.53838,0.19517 0.53838,0.19517 0.53843,0.19522 0.53838,0.19518 0.53839,0.19523 0.53839,0.19517 0.53838,0.19517 0.53843,0.19522 0.53838,0.19517 0.48512,0.17588 0.57211,-0.0252 0.57211,-0.0252 0.57217,-0.0251 0.57211,-0.0252 0.57211,-0.0252 0.57217,-0.0252 0.57211,-0.0252 0.5721,-0.0252 0.57211,-0.0252 0.57217,-0.0252 0.57211,-0.0252 0.57211,-0.0251 0.57217,-0.0252 0.57211,-0.0252 0.57211,-0.0252 0.57211,-0.0252 0.57217,-0.0252 0.57211,-0.0252 0.57211,-0.0252 0.57217,-0.0252 0.57211,-0.0251 0.57211,-0.0252 0.57211,-0.0252 0.57217,-0.0252 0.57211,-0.0252 0.57211,-0.0252 0.57211,-0.0252 0.57216,-0.0252 0.57212,-0.0252 0.57211,-0.0252 0.57215,-0.0251 0.57212,-0.0252 0.57212,-0.0252 0.61649,-0.0272 0.50493,-0.25353 0.22214,-0.52784 0.22209,-0.52784 0.22214,-0.5279 0.22215,-0.52784 0.10234,-0.24334"
       id="path678-9-3"
       style="display:inline;fill:#ffffff;stroke:#ffffff" /><path
       fill="none"
       stroke-width="0.171805"
       stroke-linecap="butt"
       stroke-opacity="1"
       stroke="#000000"
       stroke-linejoin="round"
       d="m 183.94735,235.06646 -0.0498,-0.0174 -0.0603,-0.0152 -0.14563,-0.0345 -0.14826,-0.019 -0.14954,-0.004 -0.0619,-3.4e-4 -0.14695,0.0123 -0.14477,0.0277 -0.0603,0.0126 -0.13744,0.0422 -0.0594,0.0237 -0.12737,0.0552 -0.0571,0.0325 -0.11476,0.0661 -0.0532,0.039 -0.0998,0.0747 -0.0481,0.0427 -0.0828,0.0806 -0.0418,0.0436 -0.0417,0.0496 -0.057,0.0756 -0.0342,0.046 -0.0335,0.0503 -0.0324,0.0542 -0.0309,0.0574 -0.0292,0.0602 -0.0272,0.0622 -0.025,0.0639 -0.0224,0.0648 -0.0197,0.0649 -0.0167,0.0646 -0.0137,0.0637 -0.0105,0.062 -0.007,0.0598 -0.004,0.0571 -0.005,0.0934 -4.7e-4,0.0646 0.004,0.0599 0.0112,0.11362 0.009,0.0634 0.0283,0.11963 0.0153,0.0639 0.0204,0.0557 0.0475,0.12827 0.0622,0.1221 0.0301,0.056 0.0784,0.1186 0.0381,0.048 0.0935,0.11208 0.10532,0.10142 0.0476,0.0392 0.11751,0.091 0.12674,0.0781 0.13482,0.0646 0.056,0.0268 0.0525,0.0188"
       id="path680-3-1"
       style="display:inline;fill:#ffffff;stroke:none" /><path
       fill="none"
       stroke-width="0.171805"
       stroke-linecap="butt"
       stroke-opacity="1"
       stroke="#000000"
       stroke-linejoin="round"
       d="m 201.73854,229.36998 -0.54342,-0.18056 -0.54347,-0.18057 -0.54347,-0.18057 -0.54348,-0.18062 -0.54348,-0.18057 -0.54347,-0.18056 -0.54348,-0.18057 -0.54342,-0.18057 -0.54347,-0.18056 -0.54348,-0.18063 -0.54347,-0.18056 -0.54348,-0.18058 -0.54347,-0.18056 -0.54349,-0.18056 -0.54342,-0.18063 -0.54347,-0.18056 -0.54348,-0.18058 -0.54347,-0.18056 -0.54348,-0.18056 -0.32161,-0.10687 -0.0117,-0.002 -0.0425,-0.007 -0.0584,0.005 -0.0619,0.019 -0.0649,0.0329 -0.0672,0.0466 -0.069,0.0598 -0.07,0.0724 -0.0704,0.0843 -0.07,0.0955 -0.069,0.10578 -0.0673,0.11493 -0.0649,0.12307 -0.0619,0.12989 -0.0584,0.13555 -0.0541,0.13979 -0.0493,0.1426 -0.044,0.14415 -0.0384,0.14414 -0.0324,0.14271 -0.026,0.13996 -0.0193,0.13573 -0.0126,0.13023 -0.005,0.12342 9.2e-4,0.11539 0.008,0.10629 0.0152,0.0961 0.0217,0.0851 0.0282,0.0731 0.0344,0.0608 0.0402,0.0476 0.0456,0.034 0.02,0.008 0.0305,0.0123 0.54268,0.18302 0.54261,0.18303 0.54268,0.18304 0.54262,0.18296 0.54267,0.18304 0.54262,0.18303 0.54267,0.18302 0.54268,0.18303 0.54261,0.18304 0.54268,0.18302 0.54262,0.18303 0.54267,0.18303 0.54261,0.18297 0.54268,0.18303 0.54267,0.18303 0.54263,0.18303 0.54267,0.18303 0.55246,0.18635"
       id="path682-1-2"
       style="display:inline;fill:#ffffff;stroke:none" /><path
       fill="none"
       stroke-width="0.171805"
       stroke-linecap="butt"
       stroke-opacity="1"
       stroke="#000000"
       stroke-linejoin="round"
       d="m 191.07931,225.83018 -0.0551,-0.0183 -0.1379,-0.0303 -0.0538,-0.009 -0.13945,-0.0157 -0.14008,-9.3e-4 -0.0553,0.005 -0.13727,0.0135 -0.13469,0.0279 -0.0536,0.0164 -0.12748,0.0412 -0.12187,0.0549 -0.0486,0.0244 -0.11057,0.0658 -0.0457,0.0312 -0.0971,0.0745 -0.0414,0.0355 -0.0817,0.0809 -0.0363,0.0371 -0.0364,0.0433 -0.0585,0.0774 -0.0301,0.0407 -0.0296,0.0449 -0.0288,0.0488 -0.0277,0.0523 -0.0264,0.0551 -0.016,0.0345 -0.0196,0.0453 -0.0181,0.0467 -0.0165,0.0476 -0.0147,0.0482 -0.0128,0.0482 -0.0107,0.0478 -0.009,0.0421 -0.0109,0.0596 -0.008,0.0577 -0.005,0.0555 -0.002,0.0526 4e-4,0.0908 9.3e-4,0.0593 0.005,0.0547 0.0162,0.10887 0.009,0.0574 0.0133,0.051 0.0337,0.12032 0.0194,0.0495 0.0498,0.12095 0.0631,0.11476 0.028,0.0491 0.078,0.11088 0.035,0.041 0.0915,0.10421 0.10222,0.094 0.0433,0.0323 0.11305,0.0838 0.12117,0.0716 0.12823,0.0586 0.0505,0.0203 0.035,0.0118"
       id="path684-9-0"
       style="display:inline;fill:#ffffff;stroke:none" /><path
       fill="none"
       stroke-width="0.171805"
       stroke-linecap="butt"
       stroke-opacity="1"
       stroke="#000000"
       stroke-linejoin="round"
       d="m 209.22809,251.84315 0.17988,-0.5437 0.17988,-0.54371 0.17988,-0.54371 0.17988,-0.5437 0.17988,-0.54371 0.17988,-0.54365 0.17988,-0.54369 0.17987,-0.54371 0.17983,-0.54371 0.17988,-0.5437 0.17988,-0.54371 0.17988,-0.5437 0.17988,-0.54371 0.17987,-0.54371 0.17988,-0.5437 0.17988,-0.5437 0.17988,-0.54365 0.17988,-0.54371 0.17989,-0.5437 0.17988,-0.54371 0.17988,-0.54371 0.11894,-0.35958"
       id="path686-4-6"
       style="display:inline;fill:#ffffff;stroke:none" /><path
       fill="none"
       stroke-width="0.171805"
       stroke-linecap="butt"
       stroke-opacity="1"
       stroke="#000000"
       stroke-linejoin="round"
       d="m 213.12445,240.06587 -0.54175,-0.18566 -0.54177,-0.1856 -0.54174,-0.18567 -0.54178,-0.18565 -0.54174,-0.18567 -0.54176,-0.18561 -0.54175,-0.18566 -0.54176,-0.18567 -0.5417,-0.18566 -0.54176,-0.18561 -0.54176,-0.18566 -0.54177,-0.18567 -0.54175,-0.18566 -0.54177,-0.18561 -0.54175,-0.18567 -0.54176,-0.18566 -0.54175,-0.18561 -0.54177,-0.18566 -0.54175,-0.18567 -0.54176,-0.18566 -0.54176,-0.18561 -0.54176,-0.18566 -0.54175,-0.18566 -0.54176,-0.18567 -0.54176,-0.1856 -0.54175,-0.18567 -0.54177,-0.18566 -0.51672,-0.17708"
       id="path688-7-8"
       style="display:inline;fill:#ffffff;stroke:none" /><path
       fill="none"
       stroke-width="0.171805"
       stroke-linecap="butt"
       stroke-opacity="1"
       stroke="#000000"
       stroke-linejoin="round"
       d="m 230.27247,246.35702 -0.53763,-0.19723 -0.53769,-0.19724 -0.53764,-0.19728 -0.53763,-0.19723 -0.53764,-0.19723 -0.53763,-0.19723 -0.53763,-0.19729 -0.53764,-0.19723 -0.53769,-0.19723 -0.53764,-0.19724 -0.53763,-0.19729 -0.53763,-0.19722 -0.53764,-0.19724 -0.53763,-0.19729 -0.53764,-0.19723 -0.53763,-0.19723 -0.5377,-0.19723 -0.53763,-0.19729 -0.53763,-0.19724 -0.53764,-0.19722 -0.53763,-0.19724 -0.53763,-0.19729 -0.53765,-0.19723 -0.53763,-0.19723 -0.53769,-0.19723 -0.53763,-0.19729 -0.53763,-0.19724 -0.53765,-0.19722 -0.53763,-0.19729 -0.53764,-0.19724 -0.53763,-0.19723 -0.48111,-0.1765 0.27907,-0.50007 0.27906,-0.50012 0.27908,-0.50007 0.27906,-0.50012 0.27907,-0.50007 0.27907,-0.50007 0.27901,-0.50012 0.27907,-0.50007 0.27907,-0.50012 0.27907,-0.50007 0.27906,-0.50012 0.27908,-0.50007 0.27906,-0.50006 0.27907,-0.50013 0.27901,-0.50006 0.27907,-0.50013 0.27907,-0.50006 0.13349,-0.23922 0.44337,0.36252 0.44332,0.3625 0.44336,0.36251 0.44332,0.36251 0.44338,0.3625 0.4433,0.36252 0.44338,0.3625 0.44337,0.36251 0.44331,0.36251 0.44337,0.36251 0.44331,0.36251 0.44338,0.3625 0.44331,0.36251 0.44337,0.36246 0.44332,0.3625 0.44337,0.36251 0.44331,0.36251 0.44337,0.36251 0.44338,0.3625 0.4433,0.36251 0.44338,0.3625 0.44332,0.36251 0.44336,0.36251 0.44332,0.3625 0.44337,0.36252 0.44331,0.3625 0.44337,0.36251 0.44331,0.36251 0.44338,0.3625 0.44332,0.36252 0.54925,0.44904"
       id="path690-8-7"
       style="display:inline;fill:#ffffff;stroke:none" /><path
       fill="none"
       stroke-width="0.171805"
       stroke-linecap="butt"
       stroke-opacity="1"
       stroke="#000000"
       stroke-linejoin="round"
       d="m 232.2527,242.64821 -0.40111,9.3e-4 -0.22443,0.52692 -0.22438,0.52687 -0.22443,0.52687 -0.22438,0.52687 -0.22444,0.52692 -0.22437,0.52687 -0.23269,0.54634 -0.18171,0.54313 -0.18171,0.54308 -0.18171,0.54307 -0.18172,0.54313 -0.18171,0.54308 -0.18165,0.54308 -0.18171,0.54307 -0.18171,0.54314 -0.0941,0.28112"
       id="path692-4-4"
       style="display:inline;fill:#ffffff;stroke:none" /><path
       fill="none"
       stroke-width="0.171805"
       stroke-linecap="butt"
       stroke-opacity="1"
       stroke="#000000"
       stroke-linejoin="round"
       d="m 229.9894,248.29457 -0.008,-0.017 -0.003,-0.0323 0.002,-0.0472 0.007,-0.0618 0.013,-0.0757 0.0182,-0.089 0.0232,-0.10143 0.028,-0.11293 0.0326,-0.1233 0.0369,-0.13246 0.0408,-0.14037 0.0443,-0.14689 0.0473,-0.15193 0.0498,-0.15555 0.052,-0.15748 0.0535,-0.15795 0.0546,-0.1568 0.0551,-0.15411 0.0551,-0.14993 0.0545,-0.14419 0.0533,-0.13711 0.0517,-0.12862 0.0495,-0.11895 0.0469,-0.10801 0.0437,-0.0961 0.0402,-0.0833 0.0363,-0.0697 0.032,-0.0555 0.0276,-0.0407 0.0227,-0.0256 0.0177,-0.0103"
       id="path694-5-9"
       style="display:inline;fill:#ffffff;stroke:none" /></g></svg>
